<?xml version="1.0" encoding="UTF-8"?>
<svg xmlns="http://www.w3.org/2000/svg" viewBox="0 0 120 120" width="120" height="120" role="img" aria-label="groundcrew">
  <title>groundcrew</title>
  <!--
    Taxiway sign tile: yellow field, inset inscription border, fork arrow.
    One task stream splitting onto parallel worktrees.
    Field #F7C600, ink #111111. Fork stem (22,60) to (48,60), branches to
    (92.2,29) and (92.2,91) with chevron heads. Stroke 11, round caps/joins.
    At 16px (favicon), drop the inscription border and bump the fork stroke
    to 16.

    Regenerate groundcrew-avatar.png (Slack bot avatar; also fine as the
    emoji upload; Slack scales it down) with the sips commands in the
    README's Development section. The exact command can't live here: it
    needs a double-hyphen flag, which is illegal inside an XML comment.
  -->
  <!-- rounded rectangles as explicit paths: the macOS renderers (sips and
       qlmanage) that cut the PNG avatar mishandle rx on rect -->
  <path d="M24 0 H96 A24 24 0 0 1 120 24 V96 A24 24 0 0 1 96 120 H24 A24 24 0 0 1 0 96 V24 A24 24 0 0 1 24 0 Z" fill="#F7C600"/>
  <path d="M21 9 H99 A12 12 0 0 1 111 21 V99 A12 12 0 0 1 99 111 H21 A12 12 0 0 1 9 99 V21 A12 12 0 0 1 21 9 Z" fill="none" stroke="#111111" stroke-width="6"/>
  <path
    d="M22 60 H48
       M48 60 L92.2 29 M75.3 27.5 L92.2 29 L87.8 45.4
       M48 60 L92.2 91 M75.3 92.5 L92.2 91 L87.8 74.6"
    fill="none" stroke="#111111" stroke-width="11" stroke-linecap="round" stroke-linejoin="round"/>
</svg>
